#!OML:ASF H:\Terrain\Patient Classification 1\Walking\liu\liu.ASF
:FULLY-SPECIFIED
:DEGREES
372
root 10.0978 17.1535 19.0007 6.8889 3.55119 -1.63944
lowerback -5.17086 0.161498 -1.71734
upperback -0.95838 0.260715 2.3336
thorax 1.89427 0.116156 3.38775
lowerneck -20.9034 -5.94433 -12.4018
upperneck 21.2057 -7.60467 12.7281
head 11.3558 -2.95779 5.54981
rclavicle -1.16041e-014 3.18055e-014
rhumerus -36.0828 17.5156 -83.2094
rradius 47.4891
rwrist -21.0914
rhand -30.9574 -23.1508
rfingers 7.12502
rthumb -4.24202 -53.0884
lclavicle -1.16041e-014 3.18055e-014
lhumerus -46.0623 -8.65651 92.924
lradius 26.1581
lwrist 6.90399
lhand -13.3346 -25.063
lfingers 7.12502
lthumb 12.7706 4.52642
rfemur -13.8511 4.7735 28.2569
rtibia 29.0081
rfoot -20.9275 -2.75433
rtoes -17.0706
lfemur -37.6274 8.3447 -19.3879
ltibia 58.5542
lfoot -12.972 6.88109
ltoes -10.623
373
root 10.1043 17.1644 19.1337 6.91422 3.2435 -1.42247
lowerback -5.07264 0.24103 -1.91969
upperback -1.03898 0.379618 2.23554
thorax 1.74714 0.177845 3.40686
lowerneck -20.6786 -5.95751 -12.5039
upperneck 21.1869 -7.64775 12.8499
head 11.3225 -2.97952 5.60755
rclavicle -6.4605e-016 -2.38542e-015
rhumerus -35.8534 17.5596 -83.1718
rradius 47.7176
rwrist -21.1024
rhand -31.4453 -22.1778
rfingers 7.12502
rthumb -4.71313 -52.1054
lclavicle -6.4605e-016 -2.38542e-015
lhumerus -46.0433 -8.08147 92.4508
lradius 25.877
lwrist 5.61855
lhand -12.3927 -24.4374
lfingers 7.12502
lthumb 13.6786 5.09314
rfemur -12.9546 4.68221 28.0255
rtibia 28.277
rfoot -20.9453 -2.7035
rtoes -17.3646
lfemur -38.0728 8.1877 -19.8135
ltibia 56.4166
lfoot -13.3737 6.63665
ltoes -11.0656
374
root 10.1121 17.1701 19.257 6.89951 2.98979 -1.52262
lowerback -5.1909 0.292583 -1.79436
upperback -0.716411 0.439171 2.25227
thorax 2.14195 0.19839 3.36097
lowerneck -21.4849 -6.09442 -12.4521
upperneck 21.2723 -7.75187 12.7711
head 11.52 -3.00329 5.54928
rclavicle -1.17283e-014 -1.78906e-014
rhumerus -34.7091 17.685 -82.8653
rradius 47.8032
rwrist -21.2175
rhand -31.6457 -21.6269
rfingers 7.12502
rthumb -4.90662 -51.5501
lclavicle -1.17283e-014 -1.78906e-014
lhumerus -45.3712 -8.2018 92.4878
lradius 25.6195
lwrist 5.97895
lhand -12.0877 -24.0895
lfingers 7.12502
lthumb 13.9725 5.42093
rfemur -11.9917 4.77607 28.1538
rtibia 27.3459
rfoot -20.8613 -2.69588
rtoes -17.0018
lfemur -38.5289 8.06149 -19.8519
ltibia 54.2001
lfoot -13.543 6.32449
ltoes -9.65436
375
root 10.1197 17.1784 19.3834 6.80194 2.58121 -1.85815
lowerback -5.26887 0.411806 -1.42991
upperback -0.301681 0.571224 2.32276
thorax 2.60653 0.256201 3.24223
lowerneck -22.6609 -6.18698 -12.2519
upperneck 21.5773 -7.79708 12.5968
head 11.8517 -2.98607 5.44559
rclavicle 1.98785e-016 3.57812e-015
rhumerus -33.3856 17.7031 -82.5143
rradius 47.8343
rwrist -21.3752
rhand -31.9285 -21.0994
rfingers 7.12502
rthumb -5.17968 -51.0161
lclavicle 1.98785e-016 3.57812e-015
lhumerus -44.5966 -8.64915 92.7657
lradius 25.3434
lwrist 6.99681
lhand -12.4575 -24.2653
lfingers 7.12502
lthumb 13.6161 5.26941
rfemur -10.8946 5.21805 28.5366
rtibia 26.2344
rfoot -20.7068 -2.78093
rtoes -17.7893
lfemur -38.9004 7.96708 -19.5159
ltibia 51.9542
lfoot -13.4541 6.06542
ltoes -9.03969
376
root 10.1286 17.1948 19.5211 6.7056 2.30896 -2.15776
lowerback -5.11894 0.364458 -1.11987
upperback -0.632593 0.492018 2.41402
thorax 2.18859 0.228129 3.15084
lowerneck -21.7069 -5.84879 -12.0402
upperneck 21.7285 -7.45233 12.3731
head 11.6516 -2.87216 5.39296
rclavicle 7.23079e-015 2.18663e-014
rhumerus -33.7716 18.0883 -82.8081
rradius 48.1327
rwrist -21.4255
rhand -32.2876 -20.7795
rfingers 7.12502
rthumb -5.52645 -50.6875
lclavicle 7.23079e-015 2.18663e-014
lhumerus -45.3998 -8.31185 92.7705
lradius 25.2087
lwrist 6.45885
lhand -12.8319 -24.5734
lfingers 7.12502
lthumb 13.2552 4.98514
rfemur -9.64739 5.16482 28.876
rtibia 25.002
rfoot -20.5866 -2.67275
rtoes -19.9571
lfemur -39.1797 7.74278 -19.1872
ltibia 49.6692
lfoot -12.9101 5.76008
ltoes -11.8839
